<svg xmlns="http://www.w3.org/2000/svg" xmlns:xlink="http://www.w3.org/1999/xlink" viewBox="-1044.804 261.026 31.117 48.032"><defs><style>.a{fill:#fff;}.b{clip-path:url(#a);}.c{clip-path:url(#b);}.d{clip-path:url(#c);}.e{fill:#f05146;}</style><clipPath id="a"><path d="M403.508,386.261v8.729h6.305c3.026-.048,6.969-.157,6.969-4.28,0-4.34-3.593-4.389-5.437-4.437h-7.837Zm0-14.021v7.5h6.812c2.05-.048,5.377-.157,5.377-3.882,0-3.472-3.026-3.617-4.762-3.617ZM394.9,365.5h14c3.8,0,7.222.157,9.428.868a8.486,8.486,0,0,1,6.257,8.367,8.609,8.609,0,0,1-.663,3.472c-1.64,3.677-5.124,4.388-7.077,4.8,2.206.362,5.124.82,7.125,3.062a8.013,8.013,0,0,1,2,5.413,9.588,9.588,0,0,1-5.992,8.729c-2.713,1.169-5.642,1.326-9.79,1.326H394.9Z" transform="translate(-394.9 -365.5)"/></clipPath><clipPath id="b"><rect width="247.516" height="359.037"/></clipPath><clipPath id="c"><rect width="30.78" height="6.993"/></clipPath></defs><g transform="translate(-1064 248)"><g transform="translate(19.244 13.026)"><path class="a" d="M403.508,386.261v8.729h6.305c3.026-.048,6.969-.157,6.969-4.28,0-4.34-3.593-4.389-5.437-4.437h-7.837Zm0-14.021v7.5h6.812c2.05-.048,5.377-.157,5.377-3.882,0-3.472-3.026-3.617-4.762-3.617ZM394.9,365.5h14c3.8,0,7.222.157,9.428.868a8.486,8.486,0,0,1,6.257,8.367,8.609,8.609,0,0,1-.663,3.472c-1.64,3.677-5.124,4.388-7.077,4.8,2.206.362,5.124.82,7.125,3.062a8.013,8.013,0,0,1,2,5.413,9.588,9.588,0,0,1-5.992,8.729c-2.713,1.169-5.642,1.326-9.79,1.326H394.9Z" transform="translate(-394.9 -365.5)"/><g class="b" transform="translate(0 0)"><rect class="a" width="247.516" height="359.037" transform="translate(-47.61 -44.066)"/><g class="c" transform="translate(-47.61 -44.066)"><rect class="a" width="32.263" height="37.23" transform="translate(47.008 43.463)"/></g></g></g><g transform="translate(19.196 54.065)"><g class="d" transform="translate(0 0)"><g class="c" transform="translate(-47.562 -85.106)"><rect class="e" width="31.985" height="8.198" transform="translate(46.959 84.503)"/></g></g></g></g></svg>